<?xml version="1.0" encoding="UTF-8" standalone="no"?><!DOCTYPE svg PUBLIC "-//W3C//DTD SVG 1.1//EN" "http://www.w3.org/Graphics/SVG/1.1/DTD/svg11.dtd"><svg width="100%" height="100%" viewBox="0 0 2048 2048" version="1.1" xmlns="http://www.w3.org/2000/svg" xmlns:xlink="http://www.w3.org/1999/xlink" xml:space="preserve" style="fill-rule:evenodd;clip-rule:evenodd;stroke-linejoin:round;stroke-miterlimit:1.41421;"><path d="M172.748,487.279c0,0 24.672,-218.526 149.797,-207.952c210.726,17.807 280.207,301.355 320.74,385.946c40.534,84.591 215.002,139.223 40.534,479.349c-174.469,340.126 -75.78,267.871 132.173,177.994c207.953,-89.878 215.002,-220.289 373.61,-91.641c158.609,128.649 58.157,93.403 283.733,192.092c225.576,98.69 35.246,271.397 211.477,320.741c176.231,49.345 130.411,128.649 255.535,163.895c125.125,35.247 229.101,148.035 229.101,162.133c0,14.099 -447.627,21.148 -447.627,21.148l-1853.95,-1.762l-1.762,-1314.69c0,0 252.01,-1358.74 306.642,-287.257Z" style="fill:#fff;"/></svg>