<?xml version="1.0" encoding="UTF-8" standalone="no"?>
<!DOCTYPE svg PUBLIC "-//W3C//DTD SVG 1.1//EN" "http://www.w3.org/Graphics/SVG/1.1/DTD/svg11.dtd">
<svg width="100%" height="100%" viewBox="0 0 8534 8534" version="1.1" xmlns="http://www.w3.org/2000/svg" xmlns:xlink="http://www.w3.org/1999/xlink" xml:space="preserve" style="fill-rule:evenodd;clip-rule:evenodd;stroke-linejoin:round;stroke-miterlimit:1.41421;">
    <g transform="matrix(4.16667,0,0,4.16667,0,0)">
        <g transform="matrix(-1,0,-0,1,2035.55,0)">
            <path d="M172.748,487.279C172.748,487.279 197.42,268.753 322.545,279.327C533.271,297.134 602.752,580.682 643.285,665.273C683.819,749.864 858.287,804.496 683.819,1144.62C509.35,1484.75 608.039,1412.49 815.992,1322.62C1023.95,1232.74 1030.99,1102.33 1189.6,1230.98C1348.21,1359.62 1247.76,1324.38 1473.34,1423.07C1698.91,1521.76 1508.58,1694.46 1684.81,1743.81C1861.04,1793.15 1815.22,1872.46 1940.35,1907.7C2065.47,1942.95 2169.45,2055.74 2169.45,2069.84C2169.45,2083.93 1721.82,2090.98 1721.82,2090.98L-132.132,2089.22L-133.894,774.536C-133.894,774.536 118.116,-584.207 172.748,487.279Z" style="fill:white;"/>
        </g>
    </g>
</svg>
