<?xml version="1.0" encoding="UTF-8" standalone="no"?>
<!DOCTYPE svg PUBLIC "-//W3C//DTD SVG 1.1//EN" "http://www.w3.org/Graphics/SVG/1.1/DTD/svg11.dtd">
<svg width="100%" height="100%" viewBox="0 0 8534 8534" version="1.1" xmlns="http://www.w3.org/2000/svg" xmlns:xlink="http://www.w3.org/1999/xlink" xml:space="preserve" style="fill-rule:evenodd;clip-rule:evenodd;stroke-linejoin:round;stroke-miterlimit:1.41421;">
    <g transform="matrix(4.16667,0,0,4.16667,0,0)">
        <g transform="matrix(1.76451,0.0188233,-0.0188233,1.76451,-155.381,-1012.82)">
            <path d="M1377.46,1391.18C1459.97,2254.75 -496.001,2081.62 -69.41,1494.05C-69.41,1494.05 185.585,1221.43 332.296,1221.03C454.495,1220.69 539.3,1216.24 611.971,1178.74C690.074,1138.45 965.404,1170.47 1111.53,1252.42C1237.98,1323.33 1377.46,1391.18 1377.46,1391.18Z" style="fill:white;"/>
        </g>
        <g transform="matrix(1.76461,0,0,1.76461,-687.835,-911.198)">
            <path d="M819.293,1156.42L827.293,1144.42C827.293,1144.42 828.626,1137.76 847.293,1149.76" style="fill:white;"/>
        </g>
        <g transform="matrix(1.57154,0.802561,-0.802561,1.57154,75.8799,-1327.18)">
            <path d="M819.293,1156.42L827.293,1144.42C827.293,1144.42 828.626,1137.76 847.293,1149.76" style="fill:white;"/>
        </g>
        <g transform="matrix(-1.9703,0.728697,0.612103,1.65504,1749.32,-1394.55)">
            <path d="M819.293,1156.42L827.293,1144.42C827.293,1144.42 828.626,1137.76 847.293,1149.76" style="fill:white;"/>
        </g>
        <g transform="matrix(1.76461,0,0,1.76461,-1306.35,-609.769)">
            <path d="M1183.29,991.091C1183.29,991.091 1189.96,968.424 1189.96,964.424C1189.96,960.424 1216.63,987.091 1216.63,987.091" style="fill:white;"/>
        </g>
        <g transform="matrix(-1.48359,-1.70313,-1.54963,1.34987,5085.55,1952.79)">
            <path d="M1183.29,991.091C1183.29,991.091 1189.96,968.424 1189.96,964.424C1189.96,960.424 1216.63,987.091 1216.63,987.091" style="fill:white;"/>
        </g>
        <g transform="matrix(1.12403,0,0,1.55874,-795.297,-126.258)">
            <path d="M882.253,887.133L903.293,831.091L952.626,805.758L993.959,837.758L1064.63,853.758L1080.63,885.758" style="fill:white;"/>
        </g>
        <g transform="matrix(-1.22896,-0.507178,-0.594629,1.44086,3434.15,443.908)">
            <path d="M885.959,869.758L903.293,831.091L952.626,805.758L993.959,837.758L1064.63,853.758L1080.63,885.758" style="fill:white;"/>
        </g>
    </g>
</svg>
